<svg width="22" height="22" viewBox="0 0 22 22" fill="none" xmlns="http://www.w3.org/2000/svg">
<path d="M20.4748 21.3L18.1748 19H3.9998C3.4498 19 2.97914 18.8043 2.5878 18.413C2.1958 18.021 1.9998 17.55 1.9998 17V5C1.9998 4.45 2.1958 3.97933 2.5878 3.588C2.97914 3.196 3.4498 3 3.9998 3H5.0248L17.5248 15.5H14.6748L0.674805 1.5L2.0998 0.0749969L21.8998 19.875L20.4748 21.3ZM21.9998 17.125L16.4748 11.575C16.5581 10.875 16.4875 10.1957 16.2628 9.537C16.0375 8.879 15.6831 8.30833 15.1998 7.825C14.7165 7.34166 14.1748 6.99566 13.5748 6.787C12.9748 6.579 12.2581 6.49166 11.4248 6.525L7.4998 2.625L8.9998 0.999997H14.9998L16.8498 3H19.9998C20.5498 3 21.0208 3.196 21.4128 3.588C21.8041 3.97933 21.9998 4.45 21.9998 5V17.125ZM8.6498 8.025C8.28314 8.44166 7.9998 8.904 7.7998 9.412C7.5998 9.92066 7.4998 10.45 7.4998 11C7.4998 12.25 7.93714 13.3127 8.8118 14.188C9.68714 15.0627 10.7498 15.5 11.9998 15.5C12.5498 15.5 13.0791 15.404 13.5878 15.212C14.0958 15.0207 14.5581 14.7417 14.9748 14.375L13.5748 12.95C13.3415 13.1333 13.0915 13.271 12.8248 13.363C12.5581 13.4543 12.2831 13.5 11.9998 13.5C11.2998 13.5 10.7081 13.2583 10.2248 12.775C9.74147 12.2917 9.4998 11.7 9.4998 11C9.4998 10.7167 9.54547 10.4417 9.6368 10.175C9.7288 9.90833 9.86647 9.65833 10.0498 9.425L8.6498 8.025Z" fill="#9B9B9B"/>
</svg>
